<?xml version="1.0" encoding="utf-8"?>
<!-- Generator: Adobe Illustrator 17.0.0, SVG Export Plug-In . SVG Version: 6.00 Build 0)  -->
<!DOCTYPE svg PUBLIC "-//W3C//DTD SVG 1.1//EN" "http://www.w3.org/Graphics/SVG/1.1/DTD/svg11.dtd">
<svg version="1.1" id="图层_1" xmlns="http://www.w3.org/2000/svg" xmlns:xlink="http://www.w3.org/1999/xlink" x="0px" y="0px"
	 width="141.732px" height="141.732px" viewBox="0 0 141.732 141.732" enable-background="new 0 0 141.732 141.732"
	 xml:space="preserve">
<path fill="#FFFFFF" d="M115.193,43.948c0-24.092-19.739-43.626-44.109-43.626c-24.357,0-44.109,19.534-44.109,43.626
	c0,7.958,2.191,15.389,5.95,21.813h-0.05l38.203,76.349l38.224-76.349h-0.052C113.018,59.337,115.193,51.905,115.193,43.948
	 M71.089,65.754c-12.18,0-22.056-9.766-22.056-21.812c0-12.04,9.876-21.813,22.056-21.813c12.19,0,22.053,9.773,22.053,21.813
	C93.142,55.989,83.278,65.754,71.089,65.754"/>
</svg>
