<?xml version="1.0" encoding="utf-8"?>
<!-- Generator: Adobe Illustrator 17.0.0, SVG Export Plug-In . SVG Version: 6.00 Build 0)  -->
<!DOCTYPE svg PUBLIC "-//W3C//DTD SVG 1.1//EN" "http://www.w3.org/Graphics/SVG/1.1/DTD/svg11.dtd">
<svg version="1.1" id="图层_1" xmlns="http://www.w3.org/2000/svg" xmlns:xlink="http://www.w3.org/1999/xlink" x="0px" y="0px"
	 width="141.732px" height="141.732px" viewBox="0 0 141.732 141.732" enable-background="new 0 0 141.732 141.732"
	 xml:space="preserve">
<g>
	<g>
		<path fill="#FFFFFF" d="M129.758,13.467L98.328,49.11c4.859,4.632,0.61,11.768-4.246,18.596
			c-6.917,9.751-15.004,18.492-22.049,25.035c-10.671,9.901-16.256,14.311-20.906,9.889l-30.645,34.805
			c5.532,5.474,36.791,14.86,82.583-38.431C146.527,48.435,134.78,19.431,129.758,13.467z M39.205,91.207
			c-2.045-1.922-5.201-1.809-7.093,0.338c-0.011,0.011-23.924,27.117-23.924,27.117v0.029c-1.807,2.065-1.885,5.36,0.269,7.414
			l0.022,0.015c-0.01,0.014,9.409,8.956,9.409,8.956l30.726-34.897L39.205,91.207z M86.34,37.72c0,0.017,9.413,8.949,9.413,8.949
			l31.409-35.668l-9.41-8.977c-2.036-1.922-5.194-1.816-7.093,0.345c-0.01,0.004-24.614,27.898-24.614,27.898v0.035
			c-1.801,2.047-1.864,5.335,0.294,7.398v0.021H86.34z"/>
	</g>
</g>
</svg>
